<?xml version="1.0" standalone="no"?><!DOCTYPE svg PUBLIC "-//W3C//DTD SVG 1.1//EN" "http://www.w3.org/Graphics/SVG/1.1/DTD/svg11.dtd"><svg t="1777348377689" class="icon" viewBox="0 0 1024 1024" version="1.1" xmlns="http://www.w3.org/2000/svg" p-id="12736" data-spm-anchor-id="a313x.search_index.0.i3.2bd23a81IdWnBD" xmlns:xlink="http://www.w3.org/1999/xlink" width="200" height="200"><path d="M555.086769 139.185231c76.012308 87.197538 157.617231 256.236308 161.240616 447.172923a78.690462 78.690462 0 0 0 125.87323 61.676308c3.859692-2.914462 18.116923-13.784615 36.391385-30.877539 1.260308 56.713846-12.524308 119.256615-41.196308 179.2-20.795077 43.401846-47.419077 80.265846-75.618461 106.496-15.832615-36.785231-44.425846-61.203692-72.861539-81.998769-12.681846-9.294769-23.709538-17.329231-32.846769-27.411692-13.548308-14.966154-43.874462-56.004923-33.713231-113.427693a78.690462 78.690462 0 0 0-115.63323-82.707692c-127.212308 70.340923-198.971077 172.189538-210.077539 294.360615-79.714462-42.850462-128.236308-94.365538-144.699077-153.915077-21.346462-76.878769 13.548308-165.021538 60.494769-232.920615a78.532923 78.532923 0 0 0 115.554462 44.347077c160.216615-95.389538 210.392615-273.959385 227.091692-409.993846M485.060923 0c-3.623385 153.127385-23.945846 378.249846-197.395692 481.516308 5.828923-90.663385-9.216-138.397538-31.350154-186.368-11.106462 59.076923-35.997538 75.067077-75.618462 121.77723-117.444923 138.397538-252.770462 442.761846 204.8 597.779693-39.227077-156.514462 19.849846-271.36 159.350154-348.475077a212.834462 212.834462 0 0 0 52.775385 180.066461c53.878154 59.549538 123.588923 55.926154 88.536615 177.703385 190.070154-14.729846 359.739077-376.359385 219.529846-581.159385-22.134154 76.091077-110.670769 142.099692-110.670769 142.099693C789.504 291.524923 614.242462 23.945846 485.060923 0z" fill="#999999" p-id="12737"></path></svg>